<svg width="27" height="24" viewBox="0 0 27 24" fill="none" xmlns="http://www.w3.org/2000/svg">
<path d="M9.21539 2V5" stroke="#555B67" stroke-width="1.5" stroke-miterlimit="10" stroke-linecap="round" stroke-linejoin="round"/>
<path d="M17.9539 2V5" stroke="#555B67" stroke-width="1.5" stroke-miterlimit="10" stroke-linecap="round" stroke-linejoin="round"/>
<path d="M17.9538 3.5C21.5912 3.68 23.4154 4.95 23.4154 9.65V15.83C23.4154 19.95 22.3231 22.01 16.8615 22.01H10.3077C4.84615 22.01 3.75385 19.95 3.75385 15.83V9.65C3.75385 4.95 5.578 3.69 9.21538 3.5H17.9538Z" stroke="#555B67" stroke-width="1.5" stroke-miterlimit="10" stroke-linecap="round" stroke-linejoin="round"/>
<path d="M23.1423 17.6H4.02692" stroke="#555B67" stroke-width="1.5" stroke-miterlimit="10" stroke-linecap="round" stroke-linejoin="round"/>
<path d="M13.5846 8.25C12.2411 8.25 11.1051 8.92 11.1051 10.22C11.1051 10.84 11.4219 11.31 11.9025 11.61C11.2362 11.97 10.8539 12.55 10.8539 13.23C10.8539 14.47 11.8915 15.24 13.5846 15.24C15.2668 15.24 16.3154 14.47 16.3154 13.23C16.3154 12.55 15.9331 11.96 15.2559 11.61C15.7474 11.3 16.0532 10.84 16.0532 10.22C16.0532 8.92 14.9282 8.25 13.5846 8.25ZM13.5846 11.09C13.0166 11.09 12.6015 10.78 12.6015 10.29C12.6015 9.79 13.0166 9.5 13.5846 9.5C14.1526 9.5 14.5677 9.79 14.5677 10.29C14.5677 10.78 14.1526 11.09 13.5846 11.09ZM13.5846 14C12.8637 14 12.3394 13.67 12.3394 13.07C12.3394 12.47 12.8637 12.15 13.5846 12.15C14.3055 12.15 14.8299 12.48 14.8299 13.07C14.8299 13.67 14.3055 14 13.5846 14Z" fill="#555B67"/>
</svg>
