<svg width="27" height="24" viewBox="0 0 27 24" fill="none" xmlns="http://www.w3.org/2000/svg">
<path d="M10.4825 10.87C10.3732 10.86 10.2422 10.86 10.122 10.87C7.52232 10.79 5.45786 8.84 5.45786 6.44C5.45786 3.99 7.62062 2 10.3077 2C12.9839 2 15.1575 3.99 15.1575 6.44C15.1466 8.84 13.0822 10.79 10.4825 10.87Z" stroke="#0F1C35" stroke-width="1.5" stroke-linecap="round" stroke-linejoin="round"/>
<path d="M18.4017 4C20.5208 4 22.2248 5.57 22.2248 7.5C22.2248 9.39 20.5863 10.93 18.5437 11C18.4563 10.99 18.358 10.99 18.2597 11" stroke="#0F1C35" stroke-width="1.5" stroke-linecap="round" stroke-linejoin="round"/>
<path d="M5.02093 14.56C2.37754 16.18 2.37754 18.82 5.02093 20.43C8.02478 22.27 12.9511 22.27 15.9549 20.43C18.5983 18.81 18.5983 16.17 15.9549 14.56C12.962 12.73 8.0357 12.73 5.02093 14.56Z" stroke="#0F1C35" stroke-width="1.5" stroke-linecap="round" stroke-linejoin="round"/>
<path d="M20.5099 20C21.2963 19.85 22.0391 19.56 22.6508 19.13C24.3548 17.96 24.3548 16.03 22.6508 14.86C22.05 14.44 21.3182 14.16 20.5426 14" stroke="#0F1C35" stroke-width="1.5" stroke-linecap="round" stroke-linejoin="round"/>
</svg>
