<svg width="27" height="24" viewBox="0 0 27 24" fill="none" xmlns="http://www.w3.org/2000/svg">
<path d="M21.3837 19.5C23.3171 17.7 24.5077 15.22 24.5077 12.5C24.5077 6.98 19.6141 2.5 13.5846 2.5C7.55507 2.5 2.66153 6.98 2.66153 12.5C2.66153 15.22 3.84122 17.68 5.76368 19.49" stroke="#0F1C35" stroke-width="1.5" stroke-miterlimit="10" stroke-linecap="round" stroke-linejoin="round"/>
<path d="M13.5846 21.5C15.6236 21.5 17.2766 19.9867 17.2766 18.12C17.2766 16.2533 15.6236 14.74 13.5846 14.74C11.5456 14.74 9.89261 16.2533 9.89261 18.12C9.89261 19.9867 11.5456 21.5 13.5846 21.5Z" stroke="#0F1C35" stroke-width="1.5" stroke-miterlimit="10" stroke-linecap="round" stroke-linejoin="round"/>
<path d="M17.1346 12H17.9539C18.8496 12 19.5923 11.33 19.5923 10.5C19.5923 9.68 18.8496 9 17.9539 9C17.0582 9 16.3154 9.67 16.3154 10.5V11.25C16.3154 11.66 16.6868 12 17.1346 12Z" stroke="#0F1C35" stroke-width="1.5" stroke-miterlimit="10" stroke-linecap="round" stroke-linejoin="round"/>
</svg>
